PathFileType	4	(X/Y/Z)	C:\Users\Basilio\Documents\Thesis Gigler\squatting_fais\c3dfiles\054\SLS_front_pre3\markers_experimental.trc
DataRate	CameraRate	NumFrames	NumMarkers	Units	OrigDataRate	OrigDataStartFrame	OrigNumFrames
200.000000	200.000000	4	61	mm	200.000000	711	1423
Frame#	Time	FHD			LBHD			RBHD			C7			T10			CLAV			LSHO			LUUPA			LMUPA			LDUPA			LLEP			LMEP			LRAD			LUL			LRFIN			RSHO			RUPA1			RMUPA			RDUPA			RLEP			RMEP			RRAD			RUL			RUFIN			LASI			RASI			USACR			LSACR			RSACR			LTHI1			LTHI2			LTHI3			LTHI4			LLFC			LMFC			LTIB1			LTIB2			LTIB3			LTIB4			LLMAL			LMMAL			LHEE			LMT1			LMT2			LMT5			RTHI			RTHI2			RTHI3			RTHI4			RLFC			RMFC			RTIB1			RTIB2			RTIB3			RTIB4			RLMAL			RMMAL			RHEE			RMT1			RMT2			RMT5			
		X1	Y1	Z1	X2	Y2	Z2	X3	Y3	Z3	X4	Y4	Z4	X5	Y5	Z5	X6	Y6	Z6	X7	Y7	Z7	X8	Y8	Z8	X9	Y9	Z9	X10	Y10	Z10	X11	Y11	Z11	X12	Y12	Z12	X13	Y13	Z13	X14	Y14	Z14	X15	Y15	Z15	X16	Y16	Z16	X17	Y17	Z17	X18	Y18	Z18	X19	Y19	Z19	X20	Y20	Z20	X21	Y21	Z21	X22	Y22	Z22	X23	Y23	Z23	X24	Y24	Z24	X25	Y25	Z25	X26	Y26	Z26	X27	Y27	Z27	X28	Y28	Z28	X29	Y29	Z29	X30	Y30	Z30	X31	Y31	Z31	X32	Y32	Z32	X33	Y33	Z33	X34	Y34	Z34	X35	Y35	Z35	X36	Y36	Z36	X37	Y37	Z37	X38	Y38	Z38	X39	Y39	Z39	X40	Y40	Z40	X41	Y41	Z41	X42	Y42	Z42	X43	Y43	Z43	X44	Y44	Z44	X45	Y45	Z45	X46	Y46	Z46	X47	Y47	Z47	X48	Y48	Z48	X49	Y49	Z49	X50	Y50	Z50	X51	Y51	Z51	X52	Y52	Z52	X53	Y53	Z53	X54	Y54	Z54	X55	Y55	Z55	X56	Y56	Z56	X57	Y57	Z57	X58	Y58	Z58	X59	Y59	Z59	X60	Y60	Z60	X61	Y61	Z61	

712	3.555	-186.9076843261719	1464.7431640625	-1084.643676757813	-349.4740600585938	1416.510864257813	-1157.204711914063	-368.1480407714844	1416.29443359375	-1017.747619628906	-409.9520263671876	1267.0869140625	-1071.6865234375	-530.3977661132814	959.5756835937502	-1069.073364257813	-280.4018859863282	1181.812255859375	-1084.2841796875	-331.2859497070313	1262.798950195313	-1222.871337890625	-194.0378417968751	1156.041015625	-1360.984741210938	-160.1788940429688	1188.896484375	-1347.28271484375	-126.66015625	1148.604614257813	-1376.478149414063	-69.67862701416017	1152.316650390625	-1377.455444335938	-67.13063049316408	1081.911865234375	-1340.617797851563	193.3017578125001	1153.077026367188	-1328.898071289063	199.8630676269532	1135.094604492188	-1404.326416015625	282.6321411132813	1175.538818359375	-1354.62841796875	-319.5331115722657	1255.977661132813	-937.933044433594	-165.6663970947266	1157.274658203125	-808.6855468750002	-132.9298400878907	1190.069091796875	-820.4804687500002	-96.95136260986331	1146.8115234375	-796.1067504882815	-51.99549865722658	1145.270263671875	-797.946472167969	-50.30060958862306	1086.8544921875	-846.1687011718752	205.0472106933594	1218.357666015625	-902.0698852539065	213.7564544677735	1183.984741210938	-831.6672973632815	280.4735412597657	1253.123046875	-889.9835205078127	-379.2174377441407	775.0817871093752	-1180.045166015625	-372.6653747558594	803.7935791015627	-931.1806640625002	-555.9083862304689	855.4069824218752	-1060.656005859375	-563.5670776367189	820.8916625976565	-1086.471435546875	-560.4151611328126	824.4982910156252	-1029.749755859375	-310.6322021484376	572.5161132812501	-1246.964965820313	-227.2456665039063	553.7838134765626	-1242.004638671875	-202.5344238281251	593.8043823242189	-1237.115356445313	-200.3040313720704	501.6843566894532	-1225.732177734375	-97.44118499755862	421.4266967773439	-1191.972045898438	-74.52565765380861	454.5932006835939	-1055.298950195313	-124.6833038330078	288.1626892089844	-1102.181518554688	-189.0654296875	258.5046691894532	-1156.339599609375	-161.0456085205078	246.6448364257813	-1124.446533203125	-208.4200744628907	196.0462188720704	-1076.461303710938	-332.9495544433594	107.494857788086	-1102.049926757813	-297.7848815917969	134.1348876953125	-1012.522155761719	-406.2535095214845	105.0899810791016	-1038.6982421875	-197.2894287109376	56.4607391357422	-1018.119323730469	-188.783920288086	53.56362533569337	-1067.427734375	-242.4294738769532	38.48241043090821	-1117.878051757813	-226.0340423583985	605.3587646484376	-850.0582275390627	-160.5818939208985	616.6502075195314	-860.085876464844	-147.5484771728516	645.8256225585939	-869.3486328125002	-104.2947387695313	557.2238159179689	-877.2561645507815	-41.58258819580079	501.7593994140626	-887.7244262695315	-25.84076499938966	538.8812255859376	-1017.955322265625	62.3256301879883	448.6267395019532	-901.5200195312502	47.55953598022462	346.7835998535157	-873.3581542968752	88.42698669433595	366.8174438476563	-883.7957763671877	126.1478652954102	334.6675109863282	-913.7899169921877	174.0599822998047	156.1986846923828	-904.254089355469	199.2374725341797	190.2403564453125	-988.7203369140627	139.7309875488282	98.92031860351565	-965.9760742187502	345.0053405761719	182.6807708740235	-967.990661621094	344.1049499511719	191.2351837158203	-920.7959594726565	307.3005065917969	151.8780975341797	-874.6370239257815	
713	3.56	-186.8851470947266	1464.172607421875	-1084.588256835938	-349.0998840332032	1415.93408203125	-1157.244750976563	-367.9712524414063	1415.44677734375	-1017.740661621094	-409.7274475097657	1266.510375976563	-1071.77490234375	-530.4537963867189	959.1919555664065	-1069.074462890625	-280.3536071777344	1181.158325195313	-1084.395141601563	-331.1194152832032	1262.33203125	-1223.016235351563	-193.743881225586	1155.719482421875	-1361.070922851563	-159.8633575439453	1188.461181640625	-1347.262084960938	-126.3232498168946	1148.268676757813	-1376.504028320313	-69.41379547119142	1151.966430664063	-1377.398559570313	-66.74024963378908	1081.667358398438	-1340.612548828125	193.4235992431641	1153.009887695313	-1328.669921875	200.0858154296876	1134.968505859375	-1403.984985351563	282.7848510742188	1175.545776367188	-1354.27392578125	-319.1691284179688	1255.388793945313	-938.1384887695315	-165.4029235839844	1156.691284179688	-808.8450927734377	-132.7537689208985	1189.668212890625	-820.606628417969	-96.53474426269534	1146.420288085938	-796.040222167969	-51.87795639038087	1145.001708984375	-797.9041137695315	-49.97677612304689	1086.48388671875	-846.1038208007815	205.2722320556641	1218.067993164063	-902.0359497070315	213.9030303955079	1183.8251953125	-831.7153320312502	280.6849060058594	1253.085815429688	-889.9863891601565	-379.6837768554688	774.7447509765627	-1179.858642578125	-372.6793212890626	803.5142822265627	-931.1943969726565	-556.1535644531251	854.9629516601565	-1060.519897460938	-563.5848999023439	820.5166015625002	-1086.446166992188	-560.4028930664064	824.034362792969	-1029.608154296875	-310.8426818847657	572.0916748046876	-1246.939331054688	-227.3763580322266	553.5083007812501	-1242.075439453125	-202.6409149169922	593.5521240234376	-1237.207763671875	-200.3806304931641	501.4492492675782	-1225.823974609375	-97.40464782714847	421.2607727050782	-1192.1376953125	-74.39766693115236	454.5633239746095	-1055.477294921875	-124.6773757934571	288.1284179687501	-1102.37841796875	-189.0962677001953	258.5117797851563	-1156.425048828125	-161.1112670898438	246.6167449951172	-1124.62744140625	-208.4022979736329	196.0415954589844	-1076.625732421875	-334.4472351074219	107.8023452758789	-1102.296020507813	-297.7720947265626	134.1861724853516	-1012.609924316406	-406.2691650390626	105.0881958007813	-1038.743530273438	-197.2531738281251	56.48925399780275	-1018.189147949219	-188.7276763916016	53.62182998657228	-1067.515991210938	-242.4145660400391	38.4786605834961	-1117.872314453125	-225.9249725341797	604.9702758789064	-850.0947875976565	-160.5456695556641	616.4873046875001	-859.984558105469	-147.5752105712891	645.6573486328126	-869.3374023437502	-104.2450408935547	556.9686279296876	-877.231628417969	-41.47761535644532	501.5256958007814	-887.6569824218752	-25.53332138061524	538.8878784179689	-1017.923278808594	62.57336807250978	448.4890747070314	-901.525329589844	47.81264877319337	346.7689819335938	-873.1641235351565	88.68151092529298	366.8241577148438	-883.5389404296877	126.4417724609375	334.6556091308594	-913.575866699219	174.4415588378907	156.2357788085938	-904.0496826171877	199.6238861083985	190.2098999023438	-988.5360107421877	139.8621826171875	99.1369323730469	-965.4176025390627	344.6809692382813	182.8051910400391	-967.791442871094	344.4668273925782	191.5599365234375	-920.4815063476565	307.6191406250001	152.164291381836	-874.3174438476565	
714	3.565	-186.842514038086	1463.595336914063	-1084.583374023438	-348.8874816894532	1415.416870117188	-1157.339111328125	-367.8725280761719	1414.862182617188	-1017.743530273438	-409.7339477539064	1266.119873046875	-1071.8076171875	-530.4639892578126	958.7060546875002	-1069.013061523438	-280.1774291992188	1180.543823242188	-1084.533569335938	-330.8966369628907	1261.85205078125	-1223.14794921875	-193.4712982177735	1155.243774414063	-1361.080078125	-159.5993194580078	1188.059326171875	-1347.214477539063	-125.976318359375	1147.963134765625	-1376.521118164063	-69.12098693847658	1151.611450195313	-1377.33984375	-66.34509277343751	1081.428833007813	-1340.762939453125	193.5670623779297	1152.94970703125	-1328.373413085938	200.4505157470704	1134.81982421875	-1403.754638671875	283.0128784179688	1175.52880859375	-1353.940795898438	-318.8337402343751	1254.95654296875	-938.3379516601565	-165.1084747314453	1156.3994140625	-808.8880004882815	-132.5944366455078	1189.349243164063	-820.6770019531252	-96.30590820312503	1146.084106445313	-796.1513671875002	-51.59242630004884	1144.66650390625	-797.9581298828127	-49.3893165588379	1086.073364257813	-846.2266235351565	205.6089172363282	1217.97607421875	-902.1203613281252	214.2302551269532	1183.59326171875	-831.789001464844	280.8324890136719	1252.986083984375	-889.9487304687502	-379.9599609375001	774.2468261718752	-1179.8564453125	-372.6948852539063	803.1775512695315	-931.1750488281252	-556.1278686523439	854.410095214844	-1060.368041992188	-563.6862792968751	820.0911865234377	-1086.285034179688	-560.5143432617189	823.6090087890627	-1029.5458984375	-310.9843750000001	571.7180175781251	-1246.9326171875	-227.5413513183594	553.2744750976564	-1242.225219726563	-202.7922515869141	593.2738037109376	-1237.324462890625	-200.4819946289063	501.2014465332032	-1225.960571289063	-97.42546081542972	421.2959899902345	-1192.54296875	-74.24983978271486	454.4885559082032	-1055.626586914063	-124.6431427001953	288.1062316894532	-1102.51025390625	-189.2314147949219	258.4844055175782	-1156.687377929688	-161.1677856445313	246.5852050781251	-1124.823120117188	-208.4027709960938	196.0009002685547	-1076.704345703125	-334.4591064453126	107.7513732910157	-1102.405151367188	-297.7435302734376	134.2250518798828	-1012.702270507813	-406.270721435547	105.1328506469727	-1038.745971679688	-197.1651611328126	56.5136070251465	-1018.287231445313	-188.7256011962891	53.61329269409181	-1067.496337890625	-242.4283294677735	38.42594909667969	-1117.908203125	-225.8582458496094	604.8056640625001	-849.997009277344	-160.5514221191407	616.3030395507814	-859.8919677734377	-147.4962310791016	645.4663085937501	-869.2615356445315	-104.0552215576172	556.7201538085939	-877.2352294921877	-41.38873291015626	501.4318237304689	-887.4971313476565	-25.7303867340088	538.4926147460939	-1017.910095214844	62.6682586669922	448.5280151367189	-901.2290649414065	48.07416152954103	346.8025817871094	-872.9965820312502	88.88219451904298	366.8790283203126	-883.3191528320315	126.8777313232422	334.7818298339844	-913.4140625000002	174.8986511230469	156.211669921875	-903.8316040039065	200.1044921875001	190.21484375	-988.2939453125002	140.6589965820313	99.01125335693362	-965.1558227539065	345.7530212402344	183.2288818359375	-967.5831298828127	344.8830261230469	191.85791015625	-920.244323730469	308.2876281738282	152.485595703125	-873.967224121094	
715	3.57	-186.5438690185547	1463.0263671875	-1084.661499023438	-348.5906677246094	1414.8017578125	-1157.445922851563	-367.8103637695313	1414.302612304688	-1017.846374511719	-409.7208251953126	1265.757690429688	-1071.9482421875	-530.4374389648439	958.2708129882815	-1068.966796875	-280.1080627441407	1180.023681640625	-1084.705444335938	-330.7310485839844	1261.326782226563	-1223.338989257813	-193.0628204345704	1154.77197265625	-1361.104858398438	-159.4268188476563	1187.716552734375	-1347.168334960938	-125.7247543334961	1147.699096679688	-1376.4150390625	-68.80307006835939	1151.324462890625	-1377.352783203125	-65.94961547851564	1081.190185546875	-1341.013061523438	193.7049407958985	1152.88818359375	-1328.11376953125	200.6848449707032	1134.791870117188	-1403.496704101563	283.2270507812501	1175.54931640625	-1353.514526367188	-318.5440368652344	1254.48193359375	-938.5172119140627	-164.9810028076172	1155.989379882813	-808.9651489257815	-132.4546813964844	1189.0205078125	-820.8310546875002	-95.94400024414064	1145.6962890625	-796.3223876953127	-51.16514205932619	1144.322631835938	-798.1355590820315	-49.15190505981447	1085.710571289063	-846.3255004882815	205.8623962402344	1217.779663085938	-902.1829223632815	214.4253082275391	1183.41259765625	-831.8211059570315	281.0346679687501	1252.8203125	-889.9097290039065	-380.2093505859376	773.7149658203127	-1179.827758789063	-372.6762084960938	802.6081542968752	-931.2429199218752	-556.2751464843751	854.1008300781252	-1060.227294921875	-563.6697387695314	819.6160888671877	-1086.17919921875	-560.6035156250001	823.182312011719	-1029.495239257813	-311.0447692871094	571.3280029296876	-1247.036865234375	-227.7065734863282	553.0498657226564	-1242.314331054688	-202.9950561523438	593.0198974609376	-1237.44677734375	-200.595443725586	500.9927673339845	-1226.100219726563	-97.45227813720706	421.2366333007814	-1192.787719726563	-73.99215698242189	454.4283447265626	-1055.897216796875	-124.7231216430664	288.0392150878907	-1102.711303710938	-189.286865234375	258.5046386718751	-1156.830688476563	-161.2346496582032	246.5997467041016	-1124.999755859375	-208.4066619873047	196.0146026611329	-1076.82373046875	-334.4911193847657	107.7393264770508	-1102.4677734375	-297.7064514160157	134.3004302978516	-1012.830444335938	-406.2383117675782	105.1015014648438	-1038.782470703125	-197.169662475586	56.57601165771486	-1018.323547363281	-188.773178100586	53.61656570434572	-1067.60205078125	-242.4134826660157	38.36298370361329	-1117.923706054688	-225.8129272460938	604.4974975585939	-849.8853759765627	-160.501449584961	616.1533203125001	-859.7949829101565	-147.5043487548828	645.2135009765626	-869.206970214844	-103.9999694824219	556.4784545898439	-877.213073730469	-41.26863479614259	501.2449340820314	-887.4448852539065	-26.26670455932618	538.3147583007814	-1017.898132324219	62.87836837768556	448.436248779297	-901.0842895507815	48.38706588745119	346.6818237304688	-872.8672485351565	89.08434295654298	366.8530883789063	-883.2027587890627	127.2361755371094	334.7806701660157	-913.2213134765627	175.3675079345703	156.2186584472657	-903.5407714843752	200.5874328613282	190.2321166992188	-988.0435791015627	141.5899200439453	98.97532653808597	-965.1318969726565	346.0237426757813	183.4805145263672	-967.2790527343752	345.2859497070313	192.1424865722657	-919.963562011719	308.5901489257813	152.8324890136719	-873.605163574219	
